# xmcd
#
# Track frame offsets:
# 150
# 13605
# 28770
# 41295
# 58455
# 73880
# 88760
# 102405
# 121005
# 136000
# 150740
# 168045
# 188785
# 203665
# 221605
# 243135
# 265610
# 285715
# 303100
# 320070
#
# Disc length: 4471 seconds
#
#
# Revision: 0
# Processed by: cddbd v1.5.1PL0 Copyright (c) Steve Scherf et al.
# Submitted via: FreeRIP 2.941 
#
DISCID=12117514
DTITLE=Pedro Fernandez - Exitos CD-1
DYEAR=2004
DGENRE=Ballad
TTITLE0=Yo El Aventurero
TTITLE1=Lo Mucho Que Te Quiero
TTITLE2=Gema
TTITLE3=Enamorada
TTITLE4=Tres Regalos
TTITLE5=Un Mundo Raro
TTITLE6=Si Nos Dejan
TTITLE7=Mi Forma De Sentir
TTITLE8=Bonita
TTITLE9=Los Recuerdos de tu Amor
TTITLE10=Vamos a Platicar
TTITLE11=Laberintos de Pasión
TTITLE12=Despacito
TTITLE13=¿Quién?
TTITLE14=Deseos y Delirios
TTITLE15=La Mujer que Amas
TTITLE16=Tu Eres para Mi
TTITLE17=Los Hombre No Deben Llorar
TTITLE18=Si Te Vas
TTITLE19=Tu y Las Nubes
EXTD=
EXTT0=
EXTT1=
EXTT2=
EXTT3=
EXTT4=
EXTT5=
EXTT6=
EXTT7=
EXTT8=
EXTT9=
EXTT10=
EXTT11=
EXTT12=
EXTT13=
EXTT14=
EXTT15=
EXTT16=
EXTT17=
EXTT18=
EXTT19=
PLAYORDER=
